<svg id="Capa_1" data-name="Capa 1" xmlns="http://www.w3.org/2000/svg" xmlns:xlink="http://www.w3.org/1999/xlink" viewBox="0 0 225.05 150"><defs><style>.cls-1{fill:#fff;}.cls-2{fill:url(#Degradado_sin_nombre_52);}</style><linearGradient id="Degradado_sin_nombre_52" x1="-6.03" y1="94.78" x2="122" y2="94.78" gradientUnits="userSpaceOnUse"><stop offset="0" stop-color="#ce6b01" stop-opacity="0"/><stop offset="0.01" stop-color="#d0700a" stop-opacity="0.04"/><stop offset="0.05" stop-color="#d98b38" stop-opacity="0.22"/><stop offset="0.09" stop-color="#e1a463" stop-opacity="0.39"/><stop offset="0.14" stop-color="#e8ba88" stop-opacity="0.53"/><stop offset="0.2" stop-color="#eecda9" stop-opacity="0.66"/><stop offset="0.25" stop-color="#f4ddc4" stop-opacity="0.77"/><stop offset="0.32" stop-color="#f8e9da" stop-opacity="0.85"/><stop offset="0.4" stop-color="#fbf3eb" stop-opacity="0.92"/><stop offset="0.49" stop-color="#fdfaf6" stop-opacity="0.97"/><stop offset="0.63" stop-color="#fffefd" stop-opacity="0.99"/><stop offset="1" stop-color="#fff"/></linearGradient></defs><title>ccc-isotipo</title><path class="cls-1" d="M140,43a19.76,19.76,0,0,1-34.33,13.22,14.8,14.8,0,0,1-1.2-1.54c-.32-.46-.65-.91-1-1.34a35.35,35.35,0,0,0-28.95-13.8c-1.12,0-2.24.11-3.33.24-1.63-.16-3.28-.25-5-.25-29.1,0-52.68,25.84-52.68,57.7a61.81,61.81,0,0,0,6,26.85c-8.58-9.48-15-20.7-17.49-31.9C-8.72,43.29,28.21,0,75.24,0a74.88,74.88,0,0,1,60,30l0,0c.55.72,1.08,1.46,1.6,2.21A15,15,0,0,1,138,34.1,19.68,19.68,0,0,1,140,43Z" transform="translate(-0.24 0)"/><path class="cls-2" d="M139.06,113.3a18.59,18.59,0,0,1-2.5,4.9c-.5.69-1,1.37-1.51,2A74.93,74.93,0,0,1,90.7,148.4a76.81,76.81,0,0,1-31.91-.15c-14.14-3-28.36-12.2-39.15-24.14a61.81,61.81,0,0,1-6-26.85c0-31.86,23.58-57.7,52.68-57.7,1.67,0,3.32.09,5,.25a35.44,35.44,0,1,0,32.36,56.73c.3-.39.59-.78.87-1.18a17.45,17.45,0,0,1,2.09-2.45,19.66,19.66,0,0,1,11.66-5.45,18.9,18.9,0,0,1,3.11-.08,19.76,19.76,0,0,1,17.74,25.92Z" transform="translate(-0.24 0)"/><path class="cls-1" d="M193.79,139.07c-.45-.12-.9-.22-1.34-.36a7.13,7.13,0,0,1-3.18-11.57c2.11-2.38,4.33-4.67,6.29-7.17a73.2,73.2,0,0,0,15.3-48.6,72.52,72.52,0,0,0-17-43.42c-1.48-1.78-3.13-3.4-4.66-5.14a7.11,7.11,0,0,1,2.54-11.25,19.71,19.71,0,0,1,2-.63h1.6a3.66,3.66,0,0,0,.43.15,7.05,7.05,0,0,1,3.78,2,87.34,87.34,0,0,1,25.46,56.16c.06,1,.15,2,.23,3v5.61a7,7,0,0,0-.11.78,84,84,0,0,1-2.05,15.63,87.09,87.09,0,0,1-23.29,42.5,7.31,7.31,0,0,1-4.15,2.22,1.94,1.94,0,0,0-.3.13Z" transform="translate(-0.24 0)"/><path class="cls-1" d="M200,73.83c-.31,19.13-6.57,34.59-19.13,47.46a6.86,6.86,0,0,1-7.19,2,6.76,6.76,0,0,1-5-5.33,7,7,0,0,1,2-6.66,52.06,52.06,0,0,0,6.09-7.41,51,51,0,0,0,8.12-20.33,50.31,50.31,0,0,0,.49-13.42,51,51,0,0,0-14.13-30.8,9,9,0,0,1-2.56-4.13A7.16,7.16,0,0,1,172,27.41a7,7,0,0,1,8.4.93,63,63,0,0,1,9.71,12.17,63.66,63.66,0,0,1,9.05,24.95C199.64,68.62,199.78,71.83,200,73.83Z" transform="translate(-0.24 0)"/><path class="cls-1" d="M174,75.92a39.33,39.33,0,0,1-11.66,27.37A7.12,7.12,0,0,1,152,93.46a25.71,25.71,0,0,0,7.09-13.06,25.41,25.41,0,0,0-6.32-23,9.29,9.29,0,0,1-2.55-4.15,7.16,7.16,0,0,1,3.31-7.74,7,7,0,0,1,8.41.87,37.91,37.91,0,0,1,7.37,9.83A41,41,0,0,1,174,75.92Z" transform="translate(-0.24 0)"/><circle class="cls-1" cx="141.41" cy="75.01" r="8.42"/></svg>