<svg id="Capa_1" data-name="Capa 1" xmlns="http://www.w3.org/2000/svg" xmlns:xlink="http://www.w3.org/1999/xlink" viewBox="0 0 192 192"><defs><style>.cls-1{fill:#d37d00;}.cls-2{fill:url(#Degradado_sin_nombre_47);}</style><linearGradient id="Degradado_sin_nombre_47" x1="-0.9" y1="112.14" x2="103.53" y2="112.14" gradientUnits="userSpaceOnUse"><stop offset="0" stop-color="#ce6b01" stop-opacity="0"/><stop offset="0.01" stop-color="#ce6c01" stop-opacity="0.06"/><stop offset="0.05" stop-color="#cf7001" stop-opacity="0.26"/><stop offset="0.1" stop-color="#d07301" stop-opacity="0.44"/><stop offset="0.15" stop-color="#d17600" stop-opacity="0.59"/><stop offset="0.21" stop-color="#d27800" stop-opacity="0.72"/><stop offset="0.27" stop-color="#d27a00" stop-opacity="0.82"/><stop offset="0.35" stop-color="#d37b00" stop-opacity="0.9"/><stop offset="0.44" stop-color="#d37c00" stop-opacity="0.96"/><stop offset="0.57" stop-color="#d37d00" stop-opacity="0.99"/><stop offset="0.93" stop-color="#d37d00"/></linearGradient></defs><title>ccc-icon-orange</title><path class="cls-1" d="M118.2,69.9a16.1,16.1,0,0,1-15.7,16,16.2,16.2,0,0,1-12.3-5.2l-.9-1.3-.8-1A29.1,29.1,0,0,0,64.8,67.1l-2.7.2-4-.2c-23.8,0-43,21.1-43,47.1A51.3,51.3,0,0,0,20,136.1C13,128.3,7.8,119.2,5.8,110-3.1,70.1,27,34.8,65.4,34.8a60.8,60.8,0,0,1,48.9,24.5h0l1.3,1.8a13,13,0,0,1,1,1.5A15,15,0,0,1,118.2,69.9Z"/><path class="cls-2" d="M117.5,127.2a13.9,13.9,0,0,1-2.1,4l-1.2,1.7A61,61,0,0,1,52,155.7c-11.6-2.4-23.2-9.9-32-19.6a51.3,51.3,0,0,1-4.9-21.9c0-26,19.2-47.1,43-47.1l4,.2a28.9,28.9,0,1,0,26.4,46.3,6.1,6.1,0,0,0,.7-1,16.3,16.3,0,0,1,1.7-2,15.9,15.9,0,0,1,9.5-4.4H103a16.1,16.1,0,0,1,15.2,15.3A16,16,0,0,1,117.5,127.2Z"/><path class="cls-1" d="M162.1,148.3,161,148a5.9,5.9,0,0,1-2.6-9.5c1.7-1.9,3.5-3.8,5.1-5.8a60,60,0,0,0-1.3-75.1l-3.8-4.2a5.9,5.9,0,0,1,2-9.2l1.7-.5h1.3l.3.2a5.2,5.2,0,0,1,3.1,1.6,68.4,68.4,0,0,1,14.4,20.6,71,71,0,0,1,6.4,25.2,19.4,19.4,0,0,0,.2,2.4v4.6c0,.2-.1.4-.1.6a69.1,69.1,0,0,1-1.7,12.8,70.5,70.5,0,0,1-19,34.6,6.1,6.1,0,0,1-3.4,1.9h-1.5Z"/><path class="cls-1" d="M167.1,95c-.2,15.7-5.3,28.3-15.6,38.8a5.8,5.8,0,0,1-9.9-2.8,5.5,5.5,0,0,1,1.6-5.4,41.6,41.6,0,0,0,5-6.1,42.1,42.1,0,0,0,7-27.5,41.5,41.5,0,0,0-11.5-25.1,7.5,7.5,0,0,1-2.1-3.4,5.8,5.8,0,0,1,2.7-6.3,5.9,5.9,0,0,1,6.9.7,47.7,47.7,0,0,1,7.9,10,50.8,50.8,0,0,1,7.4,20.3C166.9,90.8,167,93.4,167.1,95Z"/><path class="cls-1" d="M146,96.8a32.5,32.5,0,0,1-9.6,22.3,5.8,5.8,0,0,1-8.4-8,21.4,21.4,0,0,0,.7-29.5,7.8,7.8,0,0,1-2.1-3.3,5.7,5.7,0,0,1,2.7-6.3,5.6,5.6,0,0,1,6.8.7,29.8,29.8,0,0,1,6.1,8A34.8,34.8,0,0,1,146,96.8Z"/><circle class="cls-1" cx="119.6" cy="96" r="6.9"/></svg>