<svg id="Capa_1" data-name="Capa 1" xmlns="http://www.w3.org/2000/svg" xmlns:xlink="http://www.w3.org/1999/xlink" viewBox="0 0 10 6.67"><defs><style>.cls-1{fill:#fff;}.cls-2{fill:url(#Degradado_sin_nombre_6);}</style><linearGradient id="Degradado_sin_nombre_6" x1="-0.28" y1="4.21" x2="5.41" y2="4.21" gradientUnits="userSpaceOnUse"><stop offset="0" stop-color="#211915" stop-opacity="0"/><stop offset="0.01" stop-color="#29211d" stop-opacity="0.04"/><stop offset="0.05" stop-color="#514b48" stop-opacity="0.22"/><stop offset="0.09" stop-color="#76726f" stop-opacity="0.39"/><stop offset="0.14" stop-color="#979492" stop-opacity="0.53"/><stop offset="0.2" stop-color="#b4b1b0" stop-opacity="0.66"/><stop offset="0.25" stop-color="#cbc9c8" stop-opacity="0.77"/><stop offset="0.32" stop-color="#dedddd" stop-opacity="0.85"/><stop offset="0.4" stop-color="#ededec" stop-opacity="0.92"/><stop offset="0.49" stop-color="#f7f7f7" stop-opacity="0.97"/><stop offset="0.63" stop-color="#fdfdfd" stop-opacity="0.99"/><stop offset="1" stop-color="#fff"/></linearGradient></defs><title>isotipo-ccc-black</title><path class="cls-1" d="M6.21,1.91a.87.87,0,0,1-1.52.59.18.18,0,0,1-.05-.07l0-.06a1.57,1.57,0,0,0-1.28-.61H2.94A2.45,2.45,0,0,0,.6,4.32a2.81,2.81,0,0,0,.26,1.2A3.21,3.21,0,0,1,.09,4.1,3.33,3.33,0,0,1,6,1.33H6l.07.09a.41.41,0,0,1,0,.09A.75.75,0,0,1,6.21,1.91Z" transform="translate(0 0)"/><path class="cls-2" d="M6.17,5a.61.61,0,0,1-.11.21.36.36,0,0,1-.07.1A3.36,3.36,0,0,1,4,6.6a3.58,3.58,0,0,1-1.42,0A3.43,3.43,0,0,1,.86,5.52,2.81,2.81,0,0,1,.6,4.32,2.45,2.45,0,0,1,2.94,1.76h.22a1.58,1.58,0,0,0,.18,3.14,1.55,1.55,0,0,0,1.25-.62l0,0a.52.52,0,0,1,.1-.11.84.84,0,0,1,.51-.24h.14a.89.89,0,0,1,.83.84A.85.85,0,0,1,6.17,5Z" transform="translate(0 0)"/><path class="cls-1" d="M8.6,6.18H8.54a.32.32,0,0,1-.14-.52c.1-.1.19-.21.28-.32A3.13,3.13,0,0,0,9.3,4a3.32,3.32,0,0,0,.06-.83,3.26,3.26,0,0,0-.75-1.93L8.4,1a.31.31,0,0,1,.11-.5.32.32,0,0,1,.09,0h.09a.46.46,0,0,1,.17.09,4,4,0,0,1,.79,1.13A3.78,3.78,0,0,1,10,3.08s0,.09,0,.13v.28a4.06,4.06,0,0,1-.09.7,3.84,3.84,0,0,1-1,1.89.4.4,0,0,1-.18.1H8.6Z" transform="translate(0 0)"/><path class="cls-1" d="M8.88,3.28A3,3,0,0,1,8,5.39a.3.3,0,0,1-.32.09.29.29,0,0,1-.22-.24A.27.27,0,0,1,7.58,5a2.16,2.16,0,0,0,.27-.33,2.48,2.48,0,0,0,.36-.91,2.32,2.32,0,0,0,0-.59A2.21,2.21,0,0,0,7.6,1.75a.34.34,0,0,1-.11-.18.32.32,0,0,1,.15-.35.32.32,0,0,1,.37,0,2.88,2.88,0,0,1,.83,1.65C8.86,3.05,8.87,3.19,8.88,3.28Z" transform="translate(0 0)"/><path class="cls-1" d="M7.72,3.38a1.71,1.71,0,0,1-.51,1.21.32.32,0,0,1-.45,0,.31.31,0,0,1,0-.44,1.14,1.14,0,0,0,.31-.58,1.12,1.12,0,0,0-.28-1,.42.42,0,0,1-.11-.18A.31.31,0,0,1,6.82,2a.3.3,0,0,1,.37,0,2,2,0,0,1,.33.44A1.9,1.9,0,0,1,7.72,3.38Z" transform="translate(0 0)"/><circle class="cls-1" cx="6.28" cy="3.33" r="0.37"/></svg>