<svg id="Capa_1" data-name="Capa 1" xmlns="http://www.w3.org/2000/svg" xmlns:xlink="http://www.w3.org/1999/xlink" viewBox="0 0 4 2.67"><defs><style>.cls-1{fill:#fff;}.cls-2{fill:url(#Degradado_sin_nombre_6);}</style><linearGradient id="Degradado_sin_nombre_6" x1="0.39" y1="2.02" x2="2.66" y2="2.02" gradientUnits="userSpaceOnUse"><stop offset="0" stop-color="#211915" stop-opacity="0"/><stop offset="0.01" stop-color="#29211d" stop-opacity="0.04"/><stop offset="0.05" stop-color="#514b48" stop-opacity="0.22"/><stop offset="0.09" stop-color="#76726f" stop-opacity="0.39"/><stop offset="0.14" stop-color="#979492" stop-opacity="0.53"/><stop offset="0.2" stop-color="#b4b1b0" stop-opacity="0.66"/><stop offset="0.25" stop-color="#cbc9c8" stop-opacity="0.77"/><stop offset="0.32" stop-color="#dedddd" stop-opacity="0.85"/><stop offset="0.4" stop-color="#ededec" stop-opacity="0.92"/><stop offset="0.49" stop-color="#f7f7f7" stop-opacity="0.97"/><stop offset="0.63" stop-color="#fdfdfd" stop-opacity="0.99"/><stop offset="1" stop-color="#fff"/></linearGradient></defs><title>isotipo-ccc-black</title><path class="cls-1" d="M3,1.1a.35.35,0,0,1-.34.35.38.38,0,0,1-.27-.12l0,0,0,0A.6.6,0,0,0,1.82,1H1.67a1,1,0,0,0-.94,1,1.09,1.09,0,0,0,.11.48A1.39,1.39,0,0,1,.53,2,1.34,1.34,0,0,1,1.83.33,1.35,1.35,0,0,1,2.9.86h0l0,0a.05.05,0,0,0,0,0A.41.41,0,0,1,3,1.1Z" transform="translate(-0.5 -0.33)"/><path class="cls-2" d="M3,2.35a.2.2,0,0,1,0,.08l0,0a1.33,1.33,0,0,1-.78.5,1.37,1.37,0,0,1-.57,0,1.44,1.44,0,0,1-.7-.43,1.09,1.09,0,0,1-.11-.48,1,1,0,0,1,.94-1h.09a.64.64,0,0,0-.56.62.63.63,0,0,0,.63.63.61.61,0,0,0,.5-.24l0,0,0,0a.29.29,0,0,1,.2-.09h.06A.36.36,0,0,1,3,2.22.3.3,0,0,1,3,2.35Z" transform="translate(-0.5 -0.33)"/><path class="cls-1" d="M3.94,2.8h0a.13.13,0,0,1-.05-.21L4,2.46a1.37,1.37,0,0,0,.25-.53,1.22,1.22,0,0,0,0-.33,1.27,1.27,0,0,0-.3-.77L3.86.74a.12.12,0,0,1,0-.2H4A.15.15,0,0,1,4,.56,1.65,1.65,0,0,1,4.35,1a1.54,1.54,0,0,1,.14.55v.17a2.7,2.7,0,0,1,0,.28,1.63,1.63,0,0,1-.41.75s0,0-.08,0h0Z" transform="translate(-0.5 -0.33)"/><path class="cls-1" d="M4.05,1.64a1.23,1.23,0,0,1-.34.85.13.13,0,0,1-.13,0,.11.11,0,0,1-.09-.09.11.11,0,0,1,0-.12l.11-.13a.93.93,0,0,0,.14-.36,1,1,0,0,0,0-.24A.93.93,0,0,0,3.54,1a.18.18,0,0,1,0-.07A.13.13,0,0,1,3.55.82a.12.12,0,0,1,.15,0,.87.87,0,0,1,.17.21A1.06,1.06,0,0,1,4,1.5C4,1.55,4,1.61,4.05,1.64Z" transform="translate(-0.5 -0.33)"/><path class="cls-1" d="M3.59,1.68a.73.73,0,0,1-.21.49A.13.13,0,1,1,3.2,2a.46.46,0,0,0,.12-.23.48.48,0,0,0-.11-.41.18.18,0,0,1,0-.07.14.14,0,0,1,.06-.14.12.12,0,0,1,.15,0,.52.52,0,0,1,.13.17A.7.7,0,0,1,3.59,1.68Z" transform="translate(-0.5 -0.33)"/><circle class="cls-1" cx="2.51" cy="1.33" r="0.15"/></svg>